<?xml version="1.0" ?><!DOCTYPE svg  PUBLIC '-//W3C//DTD SVG 1.1//EN'
        'http://www.w3.org/Graphics/SVG/1.1/DTD/svg11.dtd'>
<svg height="512px" style="enable-background:new 0 0 512 512;" version="1.1" viewBox="0 0 512 512" width="512px"
     xml:space="preserve" xmlns="http://www.w3.org/2000/svg" xmlns:xlink="http://www.w3.org/1999/xlink"><g id="_x35_4_x2C__measure_x2C__caliper_x2C__calipers_x2C__physics_x2C__measurement"><g><path d="M234.939,79.912h-12.702v28.208c0,1.691-1.389,3.106-3.106,3.106    c-1.718,0-3.107-1.415-3.107-3.106V79.912h-8.156h-0.077h-4.898v28.208c0,1.691-1.389,3.106-3.106,3.106    c-1.717,0-3.106-1.415-3.106-3.106V79.912h-13.131v28.208c0,1.691-1.415,3.106-3.107,3.106c-1.717,0-3.106-1.415-3.106-3.106    V79.912h-13.156v28.208c0,1.691-1.389,3.106-3.105,3.106c-1.718,0-3.107-1.415-3.107-3.106V79.912h-6.641l-67.375,63.183h75.809    h75.177v-24.52v-0.101v-0.076V85.646V85.57v-0.076V79.912z M361.708,235.62h-43.03l-31.086,63.183h29.166h0.076h44.874V235.62z     M234.939,235.62h-75.177H83.954l67.375,63.183h6.641v-28.207c0-1.692,1.389-3.106,3.107-3.106c1.717,0,3.105,1.414,3.105,3.106    v28.207h13.156v-28.207c0-1.692,1.389-3.106,3.106-3.106c1.692,0,3.107,1.414,3.107,3.106v28.207h13.131v-28.207    c0-1.692,1.389-3.106,3.106-3.106c1.718,0,3.106,1.414,3.106,3.106v28.207h13.131v-28.207c0-1.692,1.389-3.106,3.107-3.106    c1.717,0,3.106,1.414,3.106,3.106v28.207h12.702v-15.656v-0.076v-0.076v-32.752v-0.076v-0.076V235.62z M182.894,149.307    c3.51,2.021,6.717,4.496,9.546,7.35C200.824,165.04,206,176.605,206,189.357s-5.176,24.318-13.535,32.702    c-2.854,2.829-6.061,5.328-9.571,7.349h52.046v-12.096v-0.076v-0.075v-32.753v-0.076v-0.101v-32.753v-0.076v-0.075v-2.021H182.894    z M159.763,149.307c-11.062,0-21.086,4.496-28.334,11.717c-7.247,7.248-11.717,17.273-11.717,28.334s4.47,21.086,11.717,28.334    c7.248,7.223,17.272,11.717,28.334,11.717c11.06,0,21.061-4.494,28.308-11.717c7.248-7.248,11.717-17.273,11.717-28.334    s-4.469-21.086-11.717-28.334C180.823,153.803,170.823,149.307,159.763,149.307z M142.061,171.655    c4.545-4.545,10.783-7.349,17.702-7.349c6.818,0,13.005,2.753,17.525,7.172l0.176,0.177c4.546,4.521,7.349,10.782,7.349,17.702    s-2.829,13.156-7.349,17.703c-4.545,4.545-10.808,7.348-17.702,7.348c-6.919,0-13.182-2.803-17.728-7.348    c-4.521-4.547-7.323-10.809-7.323-17.703C134.712,182.438,137.515,176.201,142.061,171.655z M159.763,170.52    c-5.202,0-9.924,2.121-13.333,5.505c-3.41,3.409-5.506,8.131-5.506,13.333c0,5.203,2.096,9.925,5.506,13.333    c3.409,3.384,8.131,5.506,13.333,5.506c5.202,0,9.924-2.122,13.333-5.506c3.384-3.408,5.504-8.13,5.504-13.333    c0-5.202-2.121-9.924-5.53-13.333l-0.126-0.126C169.536,172.564,164.889,170.52,159.763,170.52z M204.687,73.701V61.074h-37.828    v12.627h13.484h0.101h0.077h19.191h0.076h0.076H204.687z M234.939,331.707h-12.652v18.813v0.102v0.076v18.838h12.652v-20.531    v-0.101v-0.075V331.707z M386.683,84.762c-1.718,0-3.106-1.389-3.106-3.107c0-1.717,1.389-3.105,3.106-3.105h38.258    c1.692,0,3.105,1.389,3.105,3.105c0,1.719-1.413,3.107-3.105,3.107H386.683z M386.683,101.656c-1.718,0-3.106-1.39-3.106-3.082    c0-1.717,1.389-3.105,3.106-3.105h38.258c1.692,0,3.105,1.389,3.105,3.105c0,1.692-1.413,3.082-3.105,3.082H386.683z     M386.683,118.575c-1.718,0-3.106-1.39-3.106-3.106c0-1.718,1.389-3.106,3.106-3.106h38.258c1.692,0,3.105,1.389,3.105,3.106    c0,1.717-1.413,3.106-3.105,3.106H386.683z M386.683,135.469c-1.718,0-3.106-1.389-3.106-3.105c0-1.719,1.389-3.107,3.106-3.107    h38.258c1.692,0,3.105,1.389,3.105,3.107c0,1.717-1.413,3.105-3.105,3.105H386.683z M386.683,152.389    c-1.718,0-3.106-1.415-3.106-3.106c0-1.718,1.389-3.106,3.106-3.106h38.258c1.692,0,3.105,1.389,3.105,3.106    c0,1.691-1.413,3.106-3.105,3.106H386.683z M386.683,169.282c-1.718,0-3.106-1.39-3.106-3.106s1.389-3.105,3.106-3.105h38.258    c1.692,0,3.105,1.389,3.105,3.105s-1.413,3.106-3.105,3.106H386.683z M386.683,186.176c-1.718,0-3.106-1.389-3.106-3.105    c0-1.693,1.389-3.106,3.106-3.106h38.258c1.692,0,3.105,1.413,3.105,3.106c0,1.717-1.413,3.105-3.105,3.105H386.683z     M386.683,203.096c-1.718,0-3.106-1.415-3.106-3.106c0-1.717,1.389-3.106,3.106-3.106h38.258c1.692,0,3.105,1.39,3.105,3.106    c0,1.691-1.413,3.106-3.105,3.106H386.683z M386.683,219.988c-1.718,0-3.106-1.389-3.106-3.105s1.389-3.105,3.106-3.105h38.258    c1.692,0,3.105,1.389,3.105,3.105s-1.413,3.105-3.105,3.105H386.683z M386.683,236.883c-1.718,0-3.106-1.389-3.106-3.105    c0-1.691,1.389-3.106,3.106-3.106h38.258c1.692,0,3.105,1.415,3.105,3.106c0,1.717-1.413,3.105-3.105,3.105H386.683z     M386.683,253.803c-1.718,0-3.106-1.39-3.106-3.106c0-1.718,1.389-3.106,3.106-3.106h38.258c1.692,0,3.105,1.389,3.105,3.106    c0,1.717-1.413,3.106-3.105,3.106H386.683z M386.683,270.695c-1.718,0-3.106-1.389-3.106-3.105s1.389-3.105,3.106-3.105h38.258    c1.692,0,3.105,1.389,3.105,3.105s-1.413,3.105-3.105,3.105H386.683z M386.683,287.59c-1.718,0-3.106-1.389-3.106-3.105    c0-1.691,1.389-3.081,3.106-3.081h38.258c1.692,0,3.105,1.39,3.105,3.081c0,1.717-1.413,3.105-3.105,3.105H386.683z     M386.683,304.51c-1.718,0-3.106-1.39-3.106-3.106c0-1.718,1.389-3.106,3.106-3.106h38.258c1.692,0,3.105,1.389,3.105,3.106    c0,1.717-1.413,3.106-3.105,3.106H386.683z M199.965,470.873c-1.717,0-3.106-1.389-3.106-3.105s1.389-3.105,3.106-3.105h142.349    c1.718,0,3.106,1.389,3.106,3.105s-1.389,3.105-3.106,3.105H199.965z M407.693,464.662c1.717,0,3.105,1.389,3.105,3.105    s-1.389,3.105-3.105,3.105h-40.48c-1.691,0-3.106-1.389-3.106-3.105s1.415-3.105,3.106-3.105H407.693z M357.44,479.788    c1.717,0,3.106,1.389,3.106,3.105S359.157,486,357.44,486h-91.743c-1.718,0-3.106-1.39-3.106-3.106s1.389-3.105,3.106-3.105    H357.44z M149.712,486c-1.718,0-3.106-1.39-3.106-3.106s1.389-3.105,3.106-3.105h40.479c1.693,0,3.106,1.389,3.106,3.105    S191.884,486,190.191,486H149.712z M225.899,486c-1.717,0-3.106-1.39-3.106-3.106s1.389-3.105,3.106-3.105h18.46    c1.692,0,3.081,1.389,3.081,3.105S246.051,486,244.359,486H225.899z M386.683,339.889c-1.718,0-3.106-1.414-3.106-3.105    c0-1.718,1.389-3.106,3.106-3.106h38.258c1.692,0,3.105,1.389,3.105,3.106c0,1.691-1.413,3.105-3.105,3.105H386.683z     M313.652,35.443h-72.501v3.763H133.475l8.99-7.778c1.288-1.11,1.414-3.08,0.303-4.368c-1.111-1.288-3.081-1.415-4.369-0.304    l-15.177,13.157l-0.05,0.025l-0.025,0.024l-0.051,0.025v0.025l-0.05,0.051h-0.026l-0.025,0.051h-0.025l-0.024,0.051l-0.025,0.024    l-0.025,0.025l-0.025,0.025l-0.025,0.051h-0.025l-0.051,0.05v0.025l-0.025,0.051h-0.024l-0.026,0.051l-0.025,0.025l-0.025,0.025    l-0.025,0.024l-0.024,0.051v0.025l-0.051,0.05l0,0l-0.025,0.051v0.025l-0.05,0.051l0,0l-0.025,0.076l0,0l-0.051,0.05v0.025    l-0.025,0.05l0,0l-0.025,0.076l0,0l-0.025,0.076l0,0l-0.025,0.051l0,0l-0.024,0.075l0,0l-0.025,0.075l0,0l-0.025,0.076l0,0    l-0.026,0.076l-0.025,0.075v0.051l-0.024,0.075v0.076l-0.025,0.076l0,0v0.075l-0.025,0.077v0.074v0.076l0,0v0.076l0,0v0.075v0.075    l0,0v0.076l0,0v0.076v0.051l0.025,0.076v0.074l0,0l0.025,0.076v0.076l0.024,0.076v0.076l0.025,0.074l0.026,0.076l0,0l0.025,0.051    l0,0l0.025,0.076l0,0l0.024,0.076l0,0l0.025,0.075l0,0l0.025,0.075l0,0l0.025,0.051l0,0l0.025,0.076l0,0l0.051,0.076l0,0    l0.025,0.05v0.025l0.05,0.051l0,0l0.025,0.05v0.025l0.051,0.051l0,0l0.024,0.051l0.025,0.025l0.025,0.05h0.025l0.026,0.051    l0.024,0.025l0.025,0.05l0,0l0.051,0.051l0.025,0.025l0.025,0.025l0,0l0.025,0.051l0.025,0.025l0,0l0.05,0.025v0.024l0.025,0.025    l0.025,0.025l0,0l0.026,0.025l0.05,0.024l0,0l0.025,0.051h0.025l0.025,0.025l0.025,0.025l0,0l15.202,13.182    c1.288,1.111,3.258,0.961,4.369-0.328c1.111-1.287,0.984-3.258-0.303-4.369l-8.99-7.752h107.677v4.116h23.586    c1.718,0,3.106,1.415,3.106,3.106c0,1.717-1.389,3.105-3.106,3.105h-23.586V76.73v0.152v5.58h23.586    c1.718,0,3.106,1.389,3.106,3.107c0,1.717-1.389,3.105-3.106,3.105h-23.586v26.717h23.586c1.718,0,3.106,1.389,3.106,3.082    c0,1.717-1.389,3.105-3.106,3.105h-23.586v24.545v0.152v2.02h23.586c1.718,0,3.106,1.389,3.106,3.105s-1.389,3.106-3.106,3.106    h-23.586v26.718h23.586c1.718,0,3.106,1.389,3.106,3.105c0,1.691-1.389,3.106-3.106,3.106h-23.586v26.692h23.586    c1.718,0,3.106,1.389,3.106,3.105s-1.389,3.106-3.106,3.106h-23.586v12.097v0.15v14.47h23.586c1.718,0,3.106,1.389,3.106,3.106    c0,1.691-1.389,3.106-3.106,3.106h-23.586v26.691h23.586c1.718,0,3.106,1.389,3.106,3.106c0,1.717-1.389,3.105-3.106,3.105    h-23.586v15.656v0.152v10.909h23.586c1.718,0,3.106,1.389,3.106,3.105c0,1.718-1.389,3.106-3.106,3.106h-23.586v9.42v0.074v17.224    h23.586c1.718,0,3.106,1.389,3.106,3.08c0,1.718-1.389,3.106-3.106,3.106h-23.586v20.631v0.076v6.01h23.586    c1.718,0,3.106,1.39,3.106,3.106c0,1.718-1.389,3.106-3.106,3.106h-23.586v9.065H133.475l8.99-7.753    c1.288-1.111,1.414-3.081,0.303-4.369c-1.111-1.287-3.081-1.438-4.369-0.328l-15.177,13.157l-0.05,0.05l-0.025,0.025l-0.051,0.025    v0.025l-0.05,0.025l-0.026,0.025l-0.025,0.025l-0.025,0.025l-0.024,0.05h-0.025l-0.025,0.051l-0.025,0.025l-0.025,0.024    l-0.025,0.025l-0.051,0.051l0,0l-0.025,0.051l-0.024,0.025l-0.026,0.051h-0.025l-0.025,0.05l-0.025,0.025l-0.024,0.05l0,0    l-0.051,0.051v0.025l-0.025,0.051l0,0l-0.05,0.051v0.025l-0.025,0.05l0,0l-0.051,0.077l0,0l-0.025,0.074l0,0l-0.025,0.052v0.024    l-0.025,0.051l0,0l-0.025,0.075l0,0l-0.024,0.077l0,0l-0.025,0.074l0,0l-0.025,0.052l0,0l-0.026,0.075l-0.025,0.076v0.076    l-0.024,0.075v0.075l-0.025,0.076l0,0v0.076l-0.025,0.074v0.052v0.075l0,0v0.076l0,0v0.076v0.075l0,0v0.076l0,0v0.075v0.076    l0.025,0.076v0.075l0,0l0.025,0.075v0.076l0.024,0.076v0.051l0.025,0.075l0.026,0.075l0,0l0.025,0.076l0,0l0.025,0.076l0,0    l0.024,0.075l0,0l0.025,0.051l0,0l0.025,0.075l0,0l0.025,0.076l0,0l0.025,0.051v0.025l0.051,0.05l0,0l0.025,0.076l0,0l0.05,0.05    v0.025l0.025,0.051l0,0l0.051,0.051v0.025l0.024,0.051l0.025,0.024l0.025,0.025l0.025,0.025l0.026,0.051h0.024l0.025,0.05v0.025    l0.051,0.051h0.025l0.025,0.051l0,0l0.025,0.025l0.025,0.025v0.024l0.05,0.025l0,0l0.025,0.025l0.025,0.025v0.024l0.026,0.025    l0.05,0.025l0,0l0.025,0.025l0.025,0.025h0.025l0.025,0.051l0,0l15.202,13.157c1.288,1.11,3.258,0.984,4.369-0.304    c1.111-1.288,0.984-3.258-0.303-4.368l-8.99-7.778h107.677v11.439h23.586c1.718,0,3.106,1.389,3.106,3.081    c0,1.717-1.389,3.106-3.106,3.106h-23.586v31.313h72.501v-48.939H395.9l-8.99,7.778c-1.287,1.11-1.414,3.08-0.303,4.368    s3.081,1.414,4.368,0.304l15.025-13.006l0.051-0.051c0.783-0.581,1.262-1.489,1.262-2.499s-0.479-1.92-1.262-2.476l-0.051-0.05    l-15.025-13.031c-1.287-1.11-3.257-0.959-4.368,0.328c-1.111,1.288-0.984,3.258,0.303,4.369l8.99,7.753h-82.248v-88.99h-31.062    c-1.692,0-3.081-1.415-3.081-3.106c0-0.58,0.152-1.111,0.43-1.59l33.713-68.512v-85.605c0-1.691,1.389-3.106,3.105-3.106h44.95    V79.912h-44.95c-1.717,0-3.105-1.389-3.105-3.105V45.418H395.9l-8.99,7.752c-1.287,1.111-1.414,3.082-0.303,4.369    c1.111,1.289,3.081,1.439,4.368,0.328l15.025-13.03l0.051-0.05c0.783-0.556,1.262-1.465,1.262-2.476    c0-1.035-0.479-1.919-1.262-2.499l-0.051-0.051l-15.025-13.006c-1.287-1.111-3.257-0.984-4.368,0.304s-0.984,3.258,0.303,4.368    l8.99,7.778h-82.248V35.443z M386.683,356.782c-1.718,0-3.106-1.389-3.106-3.106c0-1.717,1.389-3.105,3.106-3.105h38.258    c1.692,0,3.105,1.389,3.105,3.105c0,1.718-1.413,3.106-3.105,3.106H386.683z" style="fill-rule:evenodd;clip-rule:evenodd;fill:white;"/></g></g>
    <g id="Layer_1"/></svg>